<svg fill="currentColor" viewBox="0 0 320 286" xmlns="http://www.w3.org/2000/svg">
  <path d="M69.3636 19.1465C107.034 46.1264 144.331 92.4277 159.982 121.365C175.632 92.4277 212.93 46.1264 250.601 19.1465C280.95 2.50291 320 -10.9942 320 27.2797C320 62.4207 302.261 146.491 289.475 163.649C271.745 187.437 236.877 195.129 203.882 188.756C239.522 201.217 266.024 218.423 266.024 246.331C266.024 274.238 221.758 285.86 159.982 285.86C98.2057 285.86 53.9405 274.238 53.9405 246.331C53.9405 218.423 80.4428 201.217 116.082 188.756C83.0872 195.129 48.2195 187.437 30.4897 163.649C17.7032 146.491 0 62.4207 0 27.2797C0 -10.9942 39.05 -2.50291 69.3636 19.1465Z"/>
</svg>
